<svg width="42" height="98" viewBox="0 0 42 98" fill="none" xmlns="http://www.w3.org/2000/svg">
<path d="M40.8839 38.7447C35.9995 16.1204 25.8058 10.0959 23.2191 5.83723C21.8133 3.52062 20.3798 0 20.3798 0C20.2396 2.00669 19.9911 3.27759 18.3602 4.80268C15.0939 7.85953 1.21354 19.7347 0.0476343 45.4426C-1.03969 69.4114 16.8247 84.194 19.199 85.7213C21.0126 86.6577 23.234 85.7391 24.2958 84.8807C32.9053 78.6733 44.6832 62.1226 40.8733 38.7447" fill="#10AA50"/>
<path d="M21.1203 72.9541C20.6722 78.8894 20.3494 82.3432 19.209 85.7278C19.209 85.7278 19.9608 91.3755 20.4832 97.3599H22.3457C22.7903 93.145 23.4689 88.961 24.378 84.8292C21.9655 83.5873 21.2116 78.1603 21.1203 72.9541Z" fill="#B8C4C2"/>
<path d="M24.3759 84.8335C21.9379 83.6518 21.2328 78.1156 21.1245 72.9539C21.7252 64.444 21.8988 55.9067 21.6448 47.3776C21.5174 42.9027 21.7085 5.92385 20.5957 0.510254C21.0459 1.56934 22.1332 4.05763 23.2206 5.83467C25.8178 10.0955 36.003 16.1201 40.8832 38.7466C44.6867 62.0643 32.9789 78.5861 24.3759 84.8335Z" fill="#12924F"/>
</svg>
